<?xml version="1.0" encoding="utf-8"?>
<!-- Generator: Adobe Illustrator 15.1.0, SVG Export Plug-In . SVG Version: 6.00 Build 0)  -->
<!DOCTYPE svg PUBLIC "-//W3C//DTD SVG 1.1//EN" "http://www.w3.org/Graphics/SVG/1.1/DTD/svg11.dtd">
<svg version="1.1" id="Layer_1" xmlns="http://www.w3.org/2000/svg" xmlns:xlink="http://www.w3.org/1999/xlink" x="0px" y="0px"
	 width="80px" height="80px" viewBox="0 0 80 80" enable-background="new 0 0 80 80" xml:space="preserve">
<g>
	<path fill="#FFFFFF" d="M78.535,14.968c1.849,1.847,1.849,4.842,0,6.69l-5.408,5.408c-1.847,1.849-4.846,1.849-6.691,0
		l-5.409-5.408c-1.845-1.848-1.845-4.843,0-6.691l5.409-5.408c1.846-1.847,4.845-1.847,6.691,0L78.535,14.968z"/>
	<path fill="#FFFFFF" d="M57.865,32.901H22.029c-0.442,0-1.513-0.047-1.905-0.481c-0.22-0.244-0.476-0.824-0.476-1.659
		c0-2.708,1.792-2.708,2.381-2.708h19.922c4.478,0,8.24-3.026,9.378-7.143h-5.267c-1.435,0-2.598-1.163-2.598-2.598
		c0-1.434,1.163-2.597,2.598-2.597h5.267c-1.138-4.117-4.9-7.144-9.378-7.144H22.029c-12.464,0-21.862,9.539-21.862,22.189
		c0,5.56,1.952,10.784,5.495,14.71c4.022,4.455,9.834,6.91,16.367,6.91h35.836c1.408,0,2.576,0.172,2.576,2.277
		c0,2.653-1.806,2.653-2.576,2.653H36.756c-5.38,0-9.74,4.358-9.74,9.739c0,5.38,4.36,9.741,9.74,9.741h21.109
		c12.572,0,22.057-9.516,22.057-22.134C79.922,42.254,70.438,32.901,57.865,32.901z M39.568,12.081c1.383,0,2.5,1.119,2.5,2.5
		c0,1.381-1.117,2.5-2.5,2.5c-1.38,0-2.5-1.119-2.5-2.5C37.069,13.2,38.188,12.081,39.568,12.081z"/>
</g>
</svg>
