<?xml version="1.0" encoding="utf-8"?>
<!-- Generator: Adobe Illustrator 15.1.0, SVG Export Plug-In . SVG Version: 6.00 Build 0)  -->
<!DOCTYPE svg PUBLIC "-//W3C//DTD SVG 1.1//EN" "http://www.w3.org/Graphics/SVG/1.1/DTD/svg11.dtd">
<svg version="1.1" id="Layer_1" xmlns="http://www.w3.org/2000/svg" xmlns:xlink="http://www.w3.org/1999/xlink" x="0px" y="0px"
	 width="80px" height="80px" viewBox="0 0 80 80" enable-background="new 0 0 80 80" xml:space="preserve">
<circle fill="#662D91" cx="40.09" cy="39.91" r="39.91"/>
<g>
	<path fill="#FFFFFF" d="M64.487,22.647c1.246,1.245,1.246,3.264,0,4.509l-3.646,3.645c-1.244,1.246-3.266,1.246-4.51,0
		l-3.646-3.646c-1.244-1.245-1.244-3.264,0-4.509l3.646-3.645c1.244-1.245,3.266-1.245,4.51,0L64.487,22.647z"/>
	<path fill="#FFFFFF" d="M50.556,34.734H26.402c-0.298,0-1.02-0.032-1.284-0.324c-0.148-0.165-0.321-0.555-0.321-1.118
		c0-1.825,1.208-1.825,1.605-1.825H39.83c3.018,0,5.554-2.04,6.321-4.814h-3.55c-0.967,0-1.751-0.784-1.751-1.751
		c0-0.966,0.784-1.75,1.751-1.75h3.55c-0.767-2.774-3.303-4.815-6.321-4.815H26.402c-8.4,0-14.735,6.429-14.735,14.955
		c0,3.747,1.315,7.269,3.704,9.915c2.711,3.003,6.628,4.657,11.031,4.657h24.154c0.949,0,1.736,0.116,1.736,1.535
		c0,1.788-1.217,1.788-1.736,1.788H36.328c-3.626,0-6.565,2.938-6.565,6.564s2.939,6.565,6.565,6.565h14.228
		c8.474,0,14.866-6.413,14.866-14.918C65.422,41.038,59.029,34.734,50.556,34.734z M38.224,20.701c0.932,0,1.685,0.754,1.685,1.685
		s-0.753,1.685-1.685,1.685c-0.93,0-1.685-0.754-1.685-1.685S37.293,20.701,38.224,20.701z"/>
</g>
</svg>
